<svg xmlns="http://www.w3.org/2000/svg" xmlns:xlink="http://www.w3.org/1999/xlink" width="600" height="400" viewBox="0 0 2400 1600">
<defs>
  <clipPath id="clip060">
    <rect x="0" y="0" width="2400" height="1600"></rect>
  </clipPath>
</defs>
<path clip-path="url(#clip060)" d="M0 1600 L2400 1600 L2400 0 L0 0  Z" fill="#ffffff" fill-rule="evenodd" fill-opacity="1"></path>
<defs>
  <clipPath id="clip061">
    <rect x="480" y="0" width="1681" height="1600"></rect>
  </clipPath>
</defs>
<path clip-path="url(#clip060)" d="M231.181 1486.45 L2352.76 1486.45 L2352.76 47.2441 L231.181 47.2441  Z" fill="#ffffff" fill-rule="evenodd" fill-opacity="1"></path>
<defs>
  <clipPath id="clip062">
    <rect x="231" y="47" width="2123" height="1440"></rect>
  </clipPath>
</defs>
<polyline clip-path="url(#clip062)" style="stroke:#000000; stroke-linecap:round; stroke-linejoin:round; stroke-width:2; stroke-opacity:0.1; fill:none" points="2001.99,1486.45 2001.99,47.2441 "></polyline>
<polyline clip-path="url(#clip062)" style="stroke:#000000; stroke-linecap:round; stroke-linejoin:round; stroke-width:2; stroke-opacity:0.1; fill:none" points="1592.36,1486.45 1592.36,47.2441 "></polyline>
<polyline clip-path="url(#clip062)" style="stroke:#000000; stroke-linecap:round; stroke-linejoin:round; stroke-width:2; stroke-opacity:0.1; fill:none" points="1182.73,1486.45 1182.73,47.2441 "></polyline>
<polyline clip-path="url(#clip062)" style="stroke:#000000; stroke-linecap:round; stroke-linejoin:round; stroke-width:2; stroke-opacity:0.1; fill:none" points="773.109,1486.45 773.109,47.2441 "></polyline>
<polyline clip-path="url(#clip062)" style="stroke:#000000; stroke-linecap:round; stroke-linejoin:round; stroke-width:2; stroke-opacity:0.1; fill:none" points="363.483,1486.45 363.483,47.2441 "></polyline>
<polyline clip-path="url(#clip060)" style="stroke:#000000; stroke-linecap:round; stroke-linejoin:round; stroke-width:4; stroke-opacity:1; fill:none" points="2352.76,1486.45 231.181,1486.45 "></polyline>
<polyline clip-path="url(#clip060)" style="stroke:#000000; stroke-linecap:round; stroke-linejoin:round; stroke-width:4; stroke-opacity:1; fill:none" points="2001.99,1486.45 2001.99,1467.55 "></polyline>
<polyline clip-path="url(#clip060)" style="stroke:#000000; stroke-linecap:round; stroke-linejoin:round; stroke-width:4; stroke-opacity:1; fill:none" points="1592.36,1486.45 1592.36,1467.55 "></polyline>
<polyline clip-path="url(#clip060)" style="stroke:#000000; stroke-linecap:round; stroke-linejoin:round; stroke-width:4; stroke-opacity:1; fill:none" points="1182.73,1486.45 1182.73,1467.55 "></polyline>
<polyline clip-path="url(#clip060)" style="stroke:#000000; stroke-linecap:round; stroke-linejoin:round; stroke-width:4; stroke-opacity:1; fill:none" points="773.109,1486.45 773.109,1467.55 "></polyline>
<polyline clip-path="url(#clip060)" style="stroke:#000000; stroke-linecap:round; stroke-linejoin:round; stroke-width:4; stroke-opacity:1; fill:none" points="363.483,1486.45 363.483,1467.55 "></polyline>
<path clip-path="url(#clip060)" d="M1931.43 1544.91 L1939.07 1544.91 L1939.07 1518.55 L1930.76 1520.21 L1930.76 1515.95 L1939.02 1514.29 L1943.7 1514.29 L1943.7 1544.91 L1951.34 1544.91 L1951.34 1548.85 L1931.43 1548.85 L1931.43 1544.91 Z" fill="#000000" fill-rule="evenodd" fill-opacity="1"></path><path clip-path="url(#clip060)" d="M1970.78 1517.37 Q1967.17 1517.37 1965.34 1520.93 Q1963.54 1524.47 1963.54 1531.6 Q1963.54 1538.71 1965.34 1542.27 Q1967.17 1545.82 1970.78 1545.82 Q1974.42 1545.82 1976.22 1542.27 Q1978.05 1538.71 1978.05 1531.6 Q1978.05 1524.47 1976.22 1520.93 Q1974.42 1517.37 1970.78 1517.37 M1970.78 1513.66 Q1976.59 1513.66 1979.65 1518.27 Q1982.73 1522.85 1982.73 1531.6 Q1982.73 1540.33 1979.65 1544.94 Q1976.59 1549.52 1970.78 1549.52 Q1964.97 1549.52 1961.89 1544.94 Q1958.84 1540.33 1958.84 1531.6 Q1958.84 1522.85 1961.89 1518.27 Q1964.97 1513.66 1970.78 1513.66 Z" fill="#000000" fill-rule="evenodd" fill-opacity="1"></path><path clip-path="url(#clip060)" d="M2000.95 1517.37 Q1997.33 1517.37 1995.51 1520.93 Q1993.7 1524.47 1993.7 1531.6 Q1993.7 1538.71 1995.51 1542.27 Q1997.33 1545.82 2000.95 1545.82 Q2004.58 1545.82 2006.39 1542.27 Q2008.21 1538.71 2008.21 1531.6 Q2008.21 1524.47 2006.39 1520.93 Q2004.58 1517.37 2000.95 1517.37 M2000.95 1513.66 Q2006.76 1513.66 2009.81 1518.27 Q2012.89 1522.85 2012.89 1531.6 Q2012.89 1540.33 2009.81 1544.94 Q2006.76 1549.52 2000.95 1549.52 Q1995.14 1549.52 1992.06 1544.94 Q1989 1540.33 1989 1531.6 Q1989 1522.85 1992.06 1518.27 Q1995.14 1513.66 2000.95 1513.66 Z" fill="#000000" fill-rule="evenodd" fill-opacity="1"></path><path clip-path="url(#clip060)" d="M2031.11 1517.37 Q2027.5 1517.37 2025.67 1520.93 Q2023.86 1524.47 2023.86 1531.6 Q2023.86 1538.71 2025.67 1542.27 Q2027.5 1545.82 2031.11 1545.82 Q2034.74 1545.82 2036.55 1542.27 Q2038.38 1538.71 2038.38 1531.6 Q2038.38 1524.47 2036.55 1520.93 Q2034.74 1517.37 2031.11 1517.37 M2031.11 1513.66 Q2036.92 1513.66 2039.97 1518.27 Q2043.05 1522.85 2043.05 1531.6 Q2043.05 1540.33 2039.97 1544.94 Q2036.92 1549.52 2031.11 1549.52 Q2025.3 1549.52 2022.22 1544.94 Q2019.16 1540.33 2019.16 1531.6 Q2019.16 1522.85 2022.22 1518.27 Q2025.3 1513.66 2031.11 1513.66 Z" fill="#000000" fill-rule="evenodd" fill-opacity="1"></path><path clip-path="url(#clip060)" d="M2061.27 1517.37 Q2057.66 1517.37 2055.83 1520.93 Q2054.02 1524.47 2054.02 1531.6 Q2054.02 1538.71 2055.83 1542.27 Q2057.66 1545.82 2061.27 1545.82 Q2064.9 1545.82 2066.71 1542.27 Q2068.54 1538.71 2068.54 1531.6 Q2068.54 1524.47 2066.71 1520.93 Q2064.9 1517.37 2061.27 1517.37 M2061.27 1513.66 Q2067.08 1513.66 2070.13 1518.27 Q2073.21 1522.85 2073.21 1531.6 Q2073.21 1540.33 2070.13 1544.94 Q2067.08 1549.52 2061.27 1549.52 Q2055.46 1549.52 2052.38 1544.94 Q2049.32 1540.33 2049.32 1531.6 Q2049.32 1522.85 2052.38 1518.27 Q2055.46 1513.66 2061.27 1513.66 Z" fill="#000000" fill-rule="evenodd" fill-opacity="1"></path><path clip-path="url(#clip060)" d="M1521.81 1544.91 L1529.44 1544.91 L1529.44 1518.55 L1521.13 1520.21 L1521.13 1515.95 L1529.4 1514.29 L1534.07 1514.29 L1534.07 1544.91 L1541.71 1544.91 L1541.71 1548.85 L1521.81 1548.85 L1521.81 1544.91 Z" fill="#000000" fill-rule="evenodd" fill-opacity="1"></path><path clip-path="url(#clip060)" d="M1555.19 1544.91 L1571.5 1544.91 L1571.5 1548.85 L1549.56 1548.85 L1549.56 1544.91 Q1552.22 1542.16 1556.81 1537.53 Q1561.41 1532.88 1562.59 1531.53 Q1564.84 1529.01 1565.72 1527.27 Q1566.62 1525.51 1566.62 1523.82 Q1566.62 1521.07 1564.68 1519.33 Q1562.75 1517.6 1559.65 1517.6 Q1557.45 1517.6 1555 1518.36 Q1552.57 1519.13 1549.79 1520.68 L1549.79 1515.95 Q1552.62 1514.82 1555.07 1514.24 Q1557.52 1513.66 1559.56 1513.66 Q1564.93 1513.66 1568.12 1516.35 Q1571.32 1519.03 1571.32 1523.52 Q1571.32 1525.65 1570.51 1527.57 Q1569.72 1529.47 1567.62 1532.07 Q1567.04 1532.74 1563.94 1535.95 Q1560.83 1539.15 1555.19 1544.91 Z" fill="#000000" fill-rule="evenodd" fill-opacity="1"></path><path clip-path="url(#clip060)" d="M1591.32 1517.37 Q1587.71 1517.37 1585.88 1520.93 Q1584.07 1524.47 1584.07 1531.6 Q1584.07 1538.71 1585.88 1542.27 Q1587.71 1545.82 1591.32 1545.82 Q1594.95 1545.82 1596.76 1542.27 Q1598.59 1538.71 1598.59 1531.6 Q1598.59 1524.47 1596.76 1520.93 Q1594.95 1517.37 1591.32 1517.37 M1591.32 1513.66 Q1597.13 1513.66 1600.18 1518.27 Q1603.26 1522.85 1603.26 1531.6 Q1603.26 1540.33 1600.18 1544.94 Q1597.13 1549.52 1591.32 1549.52 Q1585.51 1549.52 1582.43 1544.94 Q1579.37 1540.33 1579.37 1531.6 Q1579.37 1522.85 1582.43 1518.27 Q1585.51 1513.66 1591.32 1513.66 Z" fill="#000000" fill-rule="evenodd" fill-opacity="1"></path><path clip-path="url(#clip060)" d="M1621.48 1517.37 Q1617.87 1517.37 1616.04 1520.93 Q1614.24 1524.47 1614.24 1531.6 Q1614.24 1538.71 1616.04 1542.27 Q1617.87 1545.82 1621.48 1545.82 Q1625.12 1545.82 1626.92 1542.27 Q1628.75 1538.71 1628.75 1531.6 Q1628.75 1524.47 1626.92 1520.93 Q1625.12 1517.37 1621.48 1517.37 M1621.48 1513.66 Q1627.29 1513.66 1630.35 1518.27 Q1633.43 1522.85 1633.43 1531.6 Q1633.43 1540.33 1630.35 1544.94 Q1627.29 1549.52 1621.48 1549.52 Q1615.67 1549.52 1612.59 1544.94 Q1609.54 1540.33 1609.54 1531.6 Q1609.54 1522.85 1612.59 1518.27 Q1615.67 1513.66 1621.48 1513.66 Z" fill="#000000" fill-rule="evenodd" fill-opacity="1"></path><path clip-path="url(#clip060)" d="M1651.64 1517.37 Q1648.03 1517.37 1646.2 1520.93 Q1644.4 1524.47 1644.4 1531.6 Q1644.4 1538.71 1646.2 1542.27 Q1648.03 1545.82 1651.64 1545.82 Q1655.28 1545.82 1657.08 1542.27 Q1658.91 1538.71 1658.91 1531.6 Q1658.91 1524.47 1657.08 1520.93 Q1655.28 1517.37 1651.64 1517.37 M1651.64 1513.66 Q1657.45 1513.66 1660.51 1518.27 Q1663.59 1522.85 1663.59 1531.6 Q1663.59 1540.33 1660.51 1544.94 Q1657.45 1549.52 1651.64 1549.52 Q1645.83 1549.52 1642.75 1544.94 Q1639.7 1540.33 1639.7 1531.6 Q1639.7 1522.85 1642.75 1518.27 Q1645.83 1513.66 1651.64 1513.66 Z" fill="#000000" fill-rule="evenodd" fill-opacity="1"></path><path clip-path="url(#clip060)" d="M1112.18 1544.91 L1119.82 1544.91 L1119.82 1518.55 L1111.51 1520.21 L1111.51 1515.95 L1119.77 1514.29 L1124.45 1514.29 L1124.45 1544.91 L1132.09 1544.91 L1132.09 1548.85 L1112.18 1548.85 L1112.18 1544.91 Z" fill="#000000" fill-rule="evenodd" fill-opacity="1"></path><path clip-path="url(#clip060)" d="M1154.38 1518.36 L1142.57 1536.81 L1154.38 1536.81 L1154.38 1518.36 M1153.15 1514.29 L1159.03 1514.29 L1159.03 1536.81 L1163.96 1536.81 L1163.96 1540.7 L1159.03 1540.7 L1159.03 1548.85 L1154.38 1548.85 L1154.38 1540.7 L1138.78 1540.7 L1138.78 1536.19 L1153.15 1514.29 Z" fill="#000000" fill-rule="evenodd" fill-opacity="1"></path><path clip-path="url(#clip060)" d="M1181.69 1517.37 Q1178.08 1517.37 1176.25 1520.93 Q1174.45 1524.47 1174.45 1531.6 Q1174.45 1538.71 1176.25 1542.27 Q1178.08 1545.82 1181.69 1545.82 Q1185.33 1545.82 1187.13 1542.27 Q1188.96 1538.71 1188.96 1531.6 Q1188.96 1524.47 1187.13 1520.93 Q1185.33 1517.37 1181.69 1517.37 M1181.69 1513.66 Q1187.5 1513.66 1190.56 1518.27 Q1193.64 1522.85 1193.64 1531.6 Q1193.64 1540.33 1190.56 1544.94 Q1187.5 1549.52 1181.69 1549.52 Q1175.88 1549.52 1172.8 1544.94 Q1169.75 1540.33 1169.75 1531.6 Q1169.75 1522.85 1172.8 1518.27 Q1175.88 1513.66 1181.69 1513.66 Z" fill="#000000" fill-rule="evenodd" fill-opacity="1"></path><path clip-path="url(#clip060)" d="M1211.86 1517.37 Q1208.24 1517.37 1206.42 1520.93 Q1204.61 1524.47 1204.61 1531.6 Q1204.61 1538.71 1206.42 1542.27 Q1208.24 1545.82 1211.86 1545.82 Q1215.49 1545.82 1217.29 1542.27 Q1219.12 1538.71 1219.12 1531.6 Q1219.12 1524.47 1217.29 1520.93 Q1215.49 1517.37 1211.86 1517.37 M1211.86 1513.66 Q1217.67 1513.66 1220.72 1518.27 Q1223.8 1522.85 1223.8 1531.6 Q1223.8 1540.33 1220.72 1544.94 Q1217.67 1549.52 1211.86 1549.52 Q1206.05 1549.52 1202.97 1544.94 Q1199.91 1540.33 1199.91 1531.6 Q1199.91 1522.85 1202.97 1518.27 Q1206.05 1513.66 1211.86 1513.66 Z" fill="#000000" fill-rule="evenodd" fill-opacity="1"></path><path clip-path="url(#clip060)" d="M1242.02 1517.37 Q1238.41 1517.37 1236.58 1520.93 Q1234.77 1524.47 1234.77 1531.6 Q1234.77 1538.71 1236.58 1542.27 Q1238.41 1545.82 1242.02 1545.82 Q1245.65 1545.82 1247.46 1542.27 Q1249.29 1538.71 1249.29 1531.6 Q1249.29 1524.47 1247.46 1520.93 Q1245.65 1517.37 1242.02 1517.37 M1242.02 1513.66 Q1247.83 1513.66 1250.88 1518.27 Q1253.96 1522.85 1253.96 1531.6 Q1253.96 1540.33 1250.88 1544.94 Q1247.83 1549.52 1242.02 1549.52 Q1236.21 1549.52 1233.13 1544.94 Q1230.07 1540.33 1230.07 1531.6 Q1230.07 1522.85 1233.13 1518.27 Q1236.21 1513.66 1242.02 1513.66 Z" fill="#000000" fill-rule="evenodd" fill-opacity="1"></path><path clip-path="url(#clip060)" d="M702.554 1544.91 L710.193 1544.91 L710.193 1518.55 L701.883 1520.21 L701.883 1515.95 L710.146 1514.29 L714.822 1514.29 L714.822 1544.91 L722.461 1544.91 L722.461 1548.85 L702.554 1548.85 L702.554 1544.91 Z" fill="#000000" fill-rule="evenodd" fill-opacity="1"></path><path clip-path="url(#clip060)" d="M742.484 1529.7 Q739.336 1529.7 737.484 1531.86 Q735.655 1534.01 735.655 1537.76 Q735.655 1541.49 737.484 1543.66 Q739.336 1545.82 742.484 1545.82 Q745.632 1545.82 747.461 1543.66 Q749.313 1541.49 749.313 1537.76 Q749.313 1534.01 747.461 1531.86 Q745.632 1529.7 742.484 1529.7 M751.766 1515.05 L751.766 1519.31 Q750.007 1518.48 748.202 1518.04 Q746.419 1517.6 744.66 1517.6 Q740.03 1517.6 737.577 1520.72 Q735.146 1523.85 734.799 1530.17 Q736.165 1528.15 738.225 1527.09 Q740.285 1526 742.762 1526 Q747.97 1526 750.979 1529.17 Q754.012 1532.32 754.012 1537.76 Q754.012 1543.08 750.864 1546.3 Q747.716 1549.52 742.484 1549.52 Q736.489 1549.52 733.318 1544.94 Q730.146 1540.33 730.146 1531.6 Q730.146 1523.41 734.035 1518.55 Q737.924 1513.66 744.475 1513.66 Q746.234 1513.66 748.017 1514.01 Q749.822 1514.36 751.766 1515.05 Z" fill="#000000" fill-rule="evenodd" fill-opacity="1"></path><path clip-path="url(#clip060)" d="M772.067 1517.37 Q768.456 1517.37 766.628 1520.93 Q764.822 1524.47 764.822 1531.6 Q764.822 1538.71 766.628 1542.27 Q768.456 1545.82 772.067 1545.82 Q775.702 1545.82 777.507 1542.27 Q779.336 1538.71 779.336 1531.6 Q779.336 1524.47 777.507 1520.93 Q775.702 1517.37 772.067 1517.37 M772.067 1513.66 Q777.877 1513.66 780.933 1518.27 Q784.012 1522.85 784.012 1531.6 Q784.012 1540.33 780.933 1544.94 Q777.877 1549.52 772.067 1549.52 Q766.257 1549.52 763.178 1544.94 Q760.123 1540.33 760.123 1531.6 Q760.123 1522.85 763.178 1518.27 Q766.257 1513.66 772.067 1513.66 Z" fill="#000000" fill-rule="evenodd" fill-opacity="1"></path><path clip-path="url(#clip060)" d="M802.229 1517.37 Q798.618 1517.37 796.789 1520.93 Q794.984 1524.47 794.984 1531.6 Q794.984 1538.71 796.789 1542.27 Q798.618 1545.82 802.229 1545.82 Q805.863 1545.82 807.669 1542.27 Q809.498 1538.71 809.498 1531.6 Q809.498 1524.47 807.669 1520.93 Q805.863 1517.37 802.229 1517.37 M802.229 1513.66 Q808.039 1513.66 811.095 1518.27 Q814.174 1522.85 814.174 1531.6 Q814.174 1540.33 811.095 1544.94 Q808.039 1549.52 802.229 1549.52 Q796.419 1549.52 793.34 1544.94 Q790.285 1540.33 790.285 1531.6 Q790.285 1522.85 793.34 1518.27 Q796.419 1513.66 802.229 1513.66 Z" fill="#000000" fill-rule="evenodd" fill-opacity="1"></path><path clip-path="url(#clip060)" d="M832.391 1517.37 Q828.78 1517.37 826.951 1520.93 Q825.146 1524.47 825.146 1531.6 Q825.146 1538.71 826.951 1542.27 Q828.78 1545.82 832.391 1545.82 Q836.025 1545.82 837.831 1542.27 Q839.66 1538.71 839.66 1531.6 Q839.66 1524.47 837.831 1520.93 Q836.025 1517.37 832.391 1517.37 M832.391 1513.66 Q838.201 1513.66 841.257 1518.27 Q844.335 1522.85 844.335 1531.6 Q844.335 1540.33 841.257 1544.94 Q838.201 1549.52 832.391 1549.52 Q826.581 1549.52 823.502 1544.94 Q820.447 1540.33 820.447 1531.6 Q820.447 1522.85 823.502 1518.27 Q826.581 1513.66 832.391 1513.66 Z" fill="#000000" fill-rule="evenodd" fill-opacity="1"></path><path clip-path="url(#clip060)" d="M292.928 1544.91 L300.567 1544.91 L300.567 1518.55 L292.257 1520.21 L292.257 1515.95 L300.52 1514.29 L305.196 1514.29 L305.196 1544.91 L312.835 1544.91 L312.835 1548.85 L292.928 1548.85 L292.928 1544.91 Z" fill="#000000" fill-rule="evenodd" fill-opacity="1"></path><path clip-path="url(#clip060)" d="M332.279 1532.44 Q328.946 1532.44 327.025 1534.22 Q325.127 1536 325.127 1539.13 Q325.127 1542.25 327.025 1544.03 Q328.946 1545.82 332.279 1545.82 Q335.613 1545.82 337.534 1544.03 Q339.455 1542.23 339.455 1539.13 Q339.455 1536 337.534 1534.22 Q335.636 1532.44 332.279 1532.44 M327.604 1530.45 Q324.594 1529.7 322.905 1527.64 Q321.238 1525.58 321.238 1522.62 Q321.238 1518.48 324.178 1516.07 Q327.141 1513.66 332.279 1513.66 Q337.441 1513.66 340.381 1516.07 Q343.321 1518.48 343.321 1522.62 Q343.321 1525.58 341.631 1527.64 Q339.965 1529.7 336.979 1530.45 Q340.358 1531.23 342.233 1533.52 Q344.131 1535.82 344.131 1539.13 Q344.131 1544.15 341.053 1546.83 Q337.997 1549.52 332.279 1549.52 Q326.562 1549.52 323.483 1546.83 Q320.428 1544.15 320.428 1539.13 Q320.428 1535.82 322.326 1533.52 Q324.224 1531.23 327.604 1530.45 M325.891 1523.06 Q325.891 1525.75 327.557 1527.25 Q329.247 1528.76 332.279 1528.76 Q335.289 1528.76 336.979 1527.25 Q338.691 1525.75 338.691 1523.06 Q338.691 1520.38 336.979 1518.87 Q335.289 1517.37 332.279 1517.37 Q329.247 1517.37 327.557 1518.87 Q325.891 1520.38 325.891 1523.06 Z" fill="#000000" fill-rule="evenodd" fill-opacity="1"></path><path clip-path="url(#clip060)" d="M362.441 1517.37 Q358.83 1517.37 357.002 1520.93 Q355.196 1524.47 355.196 1531.6 Q355.196 1538.71 357.002 1542.27 Q358.83 1545.82 362.441 1545.82 Q366.076 1545.82 367.881 1542.27 Q369.71 1538.71 369.71 1531.6 Q369.71 1524.47 367.881 1520.93 Q366.076 1517.37 362.441 1517.37 M362.441 1513.66 Q368.251 1513.66 371.307 1518.27 Q374.386 1522.85 374.386 1531.6 Q374.386 1540.33 371.307 1544.94 Q368.251 1549.52 362.441 1549.52 Q356.631 1549.52 353.553 1544.94 Q350.497 1540.33 350.497 1531.6 Q350.497 1522.85 353.553 1518.27 Q356.631 1513.66 362.441 1513.66 Z" fill="#000000" fill-rule="evenodd" fill-opacity="1"></path><path clip-path="url(#clip060)" d="M392.603 1517.37 Q388.992 1517.37 387.163 1520.93 Q385.358 1524.47 385.358 1531.6 Q385.358 1538.71 387.163 1542.27 Q388.992 1545.82 392.603 1545.82 Q396.237 1545.82 398.043 1542.27 Q399.872 1538.71 399.872 1531.6 Q399.872 1524.47 398.043 1520.93 Q396.237 1517.37 392.603 1517.37 M392.603 1513.66 Q398.413 1513.66 401.469 1518.27 Q404.548 1522.85 404.548 1531.6 Q404.548 1540.33 401.469 1544.94 Q398.413 1549.52 392.603 1549.52 Q386.793 1549.52 383.714 1544.94 Q380.659 1540.33 380.659 1531.6 Q380.659 1522.85 383.714 1518.27 Q386.793 1513.66 392.603 1513.66 Z" fill="#000000" fill-rule="evenodd" fill-opacity="1"></path><path clip-path="url(#clip060)" d="M422.765 1517.37 Q419.154 1517.37 417.325 1520.93 Q415.52 1524.47 415.52 1531.6 Q415.52 1538.71 417.325 1542.27 Q419.154 1545.82 422.765 1545.82 Q426.399 1545.82 428.205 1542.27 Q430.034 1538.71 430.034 1531.6 Q430.034 1524.47 428.205 1520.93 Q426.399 1517.37 422.765 1517.37 M422.765 1513.66 Q428.575 1513.66 431.631 1518.27 Q434.709 1522.85 434.709 1531.6 Q434.709 1540.33 431.631 1544.94 Q428.575 1549.52 422.765 1549.52 Q416.955 1549.52 413.876 1544.94 Q410.821 1540.33 410.821 1531.6 Q410.821 1522.85 413.876 1518.27 Q416.955 1513.66 422.765 1513.66 Z" fill="#000000" fill-rule="evenodd" fill-opacity="1"></path><polyline clip-path="url(#clip062)" style="stroke:#000000; stroke-linecap:round; stroke-linejoin:round; stroke-width:2; stroke-opacity:0.1; fill:none" points="2352.76,1411.58 231.181,1411.58 "></polyline>
<polyline clip-path="url(#clip062)" style="stroke:#000000; stroke-linecap:round; stroke-linejoin:round; stroke-width:2; stroke-opacity:0.1; fill:none" points="2352.76,1206.77 231.181,1206.77 "></polyline>
<polyline clip-path="url(#clip062)" style="stroke:#000000; stroke-linecap:round; stroke-linejoin:round; stroke-width:2; stroke-opacity:0.1; fill:none" points="2352.76,1001.95 231.181,1001.95 "></polyline>
<polyline clip-path="url(#clip062)" style="stroke:#000000; stroke-linecap:round; stroke-linejoin:round; stroke-width:2; stroke-opacity:0.1; fill:none" points="2352.76,797.141 231.181,797.141 "></polyline>
<polyline clip-path="url(#clip062)" style="stroke:#000000; stroke-linecap:round; stroke-linejoin:round; stroke-width:2; stroke-opacity:0.1; fill:none" points="2352.76,592.328 231.181,592.328 "></polyline>
<polyline clip-path="url(#clip062)" style="stroke:#000000; stroke-linecap:round; stroke-linejoin:round; stroke-width:2; stroke-opacity:0.1; fill:none" points="2352.76,387.515 231.181,387.515 "></polyline>
<polyline clip-path="url(#clip062)" style="stroke:#000000; stroke-linecap:round; stroke-linejoin:round; stroke-width:2; stroke-opacity:0.1; fill:none" points="2352.76,182.702 231.181,182.702 "></polyline>
<polyline clip-path="url(#clip060)" style="stroke:#000000; stroke-linecap:round; stroke-linejoin:round; stroke-width:4; stroke-opacity:1; fill:none" points="231.181,1486.45 231.181,47.2441 "></polyline>
<polyline clip-path="url(#clip060)" style="stroke:#000000; stroke-linecap:round; stroke-linejoin:round; stroke-width:4; stroke-opacity:1; fill:none" points="231.181,1411.58 250.079,1411.58 "></polyline>
<polyline clip-path="url(#clip060)" style="stroke:#000000; stroke-linecap:round; stroke-linejoin:round; stroke-width:4; stroke-opacity:1; fill:none" points="231.181,1206.77 250.079,1206.77 "></polyline>
<polyline clip-path="url(#clip060)" style="stroke:#000000; stroke-linecap:round; stroke-linejoin:round; stroke-width:4; stroke-opacity:1; fill:none" points="231.181,1001.95 250.079,1001.95 "></polyline>
<polyline clip-path="url(#clip060)" style="stroke:#000000; stroke-linecap:round; stroke-linejoin:round; stroke-width:4; stroke-opacity:1; fill:none" points="231.181,797.141 250.079,797.141 "></polyline>
<polyline clip-path="url(#clip060)" style="stroke:#000000; stroke-linecap:round; stroke-linejoin:round; stroke-width:4; stroke-opacity:1; fill:none" points="231.181,592.328 250.079,592.328 "></polyline>
<polyline clip-path="url(#clip060)" style="stroke:#000000; stroke-linecap:round; stroke-linejoin:round; stroke-width:4; stroke-opacity:1; fill:none" points="231.181,387.515 250.079,387.515 "></polyline>
<polyline clip-path="url(#clip060)" style="stroke:#000000; stroke-linecap:round; stroke-linejoin:round; stroke-width:4; stroke-opacity:1; fill:none" points="231.181,182.702 250.079,182.702 "></polyline>
<path clip-path="url(#clip060)" d="M56.6171 1424.93 L72.9365 1424.93 L72.9365 1428.86 L50.9921 1428.86 L50.9921 1424.93 Q53.6541 1422.17 58.2375 1417.54 Q62.8439 1412.89 64.0245 1411.55 Q66.2698 1409.02 67.1494 1407.29 Q68.0522 1405.53 68.0522 1403.84 Q68.0522 1401.08 66.1078 1399.35 Q64.1865 1397.61 61.0847 1397.61 Q58.8856 1397.61 56.4319 1398.37 Q54.0014 1399.14 51.2236 1400.69 L51.2236 1395.97 Q54.0477 1394.83 56.5014 1394.25 Q58.955 1393.68 60.9921 1393.68 Q66.3624 1393.68 69.5568 1396.36 Q72.7513 1399.05 72.7513 1403.54 Q72.7513 1405.67 71.9411 1407.59 Q71.1541 1409.49 69.0476 1412.08 Q68.4689 1412.75 65.367 1415.97 Q62.2652 1419.16 56.6171 1424.93 Z" fill="#000000" fill-rule="evenodd" fill-opacity="1"></path><path clip-path="url(#clip060)" d="M83.5614 1424.93 L91.2002 1424.93 L91.2002 1398.56 L82.8901 1400.23 L82.8901 1395.97 L91.1539 1394.3 L95.8298 1394.3 L95.8298 1424.93 L103.469 1424.93 L103.469 1428.86 L83.5614 1428.86 L83.5614 1424.93 Z" fill="#000000" fill-rule="evenodd" fill-opacity="1"></path><path clip-path="url(#clip060)" d="M122.913 1397.38 Q119.302 1397.38 117.473 1400.94 Q115.668 1404.49 115.668 1411.61 Q115.668 1418.72 117.473 1422.29 Q119.302 1425.83 122.913 1425.83 Q126.547 1425.83 128.353 1422.29 Q130.182 1418.72 130.182 1411.61 Q130.182 1404.49 128.353 1400.94 Q126.547 1397.38 122.913 1397.38 M122.913 1393.68 Q128.723 1393.68 131.779 1398.28 Q134.857 1402.86 134.857 1411.61 Q134.857 1420.34 131.779 1424.95 Q128.723 1429.53 122.913 1429.53 Q117.103 1429.53 114.024 1424.95 Q110.969 1420.34 110.969 1411.61 Q110.969 1402.86 114.024 1398.28 Q117.103 1393.68 122.913 1393.68 Z" fill="#000000" fill-rule="evenodd" fill-opacity="1"></path><path clip-path="url(#clip060)" d="M153.075 1397.38 Q149.464 1397.38 147.635 1400.94 Q145.83 1404.49 145.83 1411.61 Q145.83 1418.72 147.635 1422.29 Q149.464 1425.83 153.075 1425.83 Q156.709 1425.83 158.515 1422.29 Q160.343 1418.72 160.343 1411.61 Q160.343 1404.49 158.515 1400.94 Q156.709 1397.38 153.075 1397.38 M153.075 1393.68 Q158.885 1393.68 161.941 1398.28 Q165.019 1402.86 165.019 1411.61 Q165.019 1420.34 161.941 1424.95 Q158.885 1429.53 153.075 1429.53 Q147.265 1429.53 144.186 1424.95 Q141.131 1420.34 141.131 1411.61 Q141.131 1402.86 144.186 1398.28 Q147.265 1393.68 153.075 1393.68 Z" fill="#000000" fill-rule="evenodd" fill-opacity="1"></path><path clip-path="url(#clip060)" d="M183.237 1397.38 Q179.626 1397.38 177.797 1400.94 Q175.991 1404.49 175.991 1411.61 Q175.991 1418.72 177.797 1422.29 Q179.626 1425.83 183.237 1425.83 Q186.871 1425.83 188.677 1422.29 Q190.505 1418.72 190.505 1411.61 Q190.505 1404.49 188.677 1400.94 Q186.871 1397.38 183.237 1397.38 M183.237 1393.68 Q189.047 1393.68 192.102 1398.28 Q195.181 1402.86 195.181 1411.61 Q195.181 1420.34 192.102 1424.95 Q189.047 1429.53 183.237 1429.53 Q177.427 1429.53 174.348 1424.95 Q171.292 1420.34 171.292 1411.61 Q171.292 1402.86 174.348 1398.28 Q177.427 1393.68 183.237 1393.68 Z" fill="#000000" fill-rule="evenodd" fill-opacity="1"></path><path clip-path="url(#clip060)" d="M56.6171 1220.11 L72.9365 1220.11 L72.9365 1224.05 L50.9921 1224.05 L50.9921 1220.11 Q53.6541 1217.36 58.2375 1212.73 Q62.8439 1208.08 64.0245 1206.73 Q66.2698 1204.21 67.1494 1202.47 Q68.0522 1200.71 68.0522 1199.02 Q68.0522 1196.27 66.1078 1194.53 Q64.1865 1192.8 61.0847 1192.8 Q58.8856 1192.8 56.4319 1193.56 Q54.0014 1194.33 51.2236 1195.88 L51.2236 1191.15 Q54.0477 1190.02 56.5014 1189.44 Q58.955 1188.86 60.9921 1188.86 Q66.3624 1188.86 69.5568 1191.55 Q72.7513 1194.23 72.7513 1198.72 Q72.7513 1200.85 71.9411 1202.77 Q71.1541 1204.67 69.0476 1207.26 Q68.4689 1207.94 65.367 1211.15 Q62.2652 1214.35 56.6171 1220.11 Z" fill="#000000" fill-rule="evenodd" fill-opacity="1"></path><path clip-path="url(#clip060)" d="M86.779 1220.11 L103.098 1220.11 L103.098 1224.05 L81.154 1224.05 L81.154 1220.11 Q83.816 1217.36 88.3993 1212.73 Q93.0058 1208.08 94.1863 1206.73 Q96.4317 1204.21 97.3113 1202.47 Q98.2141 1200.71 98.2141 1199.02 Q98.2141 1196.27 96.2697 1194.53 Q94.3484 1192.8 91.2465 1192.8 Q89.0475 1192.8 86.5938 1193.56 Q84.1632 1194.33 81.3855 1195.88 L81.3855 1191.15 Q84.2095 1190.02 86.6632 1189.44 Q89.1169 1188.86 91.1539 1188.86 Q96.5243 1188.86 99.7187 1191.55 Q102.913 1194.23 102.913 1198.72 Q102.913 1200.85 102.103 1202.77 Q101.316 1204.67 99.2095 1207.26 Q98.6308 1207.94 95.5289 1211.15 Q92.4271 1214.35 86.779 1220.11 Z" fill="#000000" fill-rule="evenodd" fill-opacity="1"></path><path clip-path="url(#clip060)" d="M122.913 1192.57 Q119.302 1192.57 117.473 1196.13 Q115.668 1199.67 115.668 1206.8 Q115.668 1213.91 117.473 1217.47 Q119.302 1221.01 122.913 1221.01 Q126.547 1221.01 128.353 1217.47 Q130.182 1213.91 130.182 1206.8 Q130.182 1199.67 128.353 1196.13 Q126.547 1192.57 122.913 1192.57 M122.913 1188.86 Q128.723 1188.86 131.779 1193.47 Q134.857 1198.05 134.857 1206.8 Q134.857 1215.53 131.779 1220.14 Q128.723 1224.72 122.913 1224.72 Q117.103 1224.72 114.024 1220.14 Q110.969 1215.53 110.969 1206.8 Q110.969 1198.05 114.024 1193.47 Q117.103 1188.86 122.913 1188.86 Z" fill="#000000" fill-rule="evenodd" fill-opacity="1"></path><path clip-path="url(#clip060)" d="M153.075 1192.57 Q149.464 1192.57 147.635 1196.13 Q145.83 1199.67 145.83 1206.8 Q145.83 1213.91 147.635 1217.47 Q149.464 1221.01 153.075 1221.01 Q156.709 1221.01 158.515 1217.47 Q160.343 1213.91 160.343 1206.8 Q160.343 1199.67 158.515 1196.13 Q156.709 1192.57 153.075 1192.57 M153.075 1188.86 Q158.885 1188.86 161.941 1193.47 Q165.019 1198.05 165.019 1206.8 Q165.019 1215.53 161.941 1220.14 Q158.885 1224.72 153.075 1224.72 Q147.265 1224.72 144.186 1220.14 Q141.131 1215.53 141.131 1206.8 Q141.131 1198.05 144.186 1193.47 Q147.265 1188.86 153.075 1188.86 Z" fill="#000000" fill-rule="evenodd" fill-opacity="1"></path><path clip-path="url(#clip060)" d="M183.237 1192.57 Q179.626 1192.57 177.797 1196.13 Q175.991 1199.67 175.991 1206.8 Q175.991 1213.91 177.797 1217.47 Q179.626 1221.01 183.237 1221.01 Q186.871 1221.01 188.677 1217.47 Q190.505 1213.91 190.505 1206.8 Q190.505 1199.67 188.677 1196.13 Q186.871 1192.57 183.237 1192.57 M183.237 1188.86 Q189.047 1188.86 192.102 1193.47 Q195.181 1198.05 195.181 1206.8 Q195.181 1215.53 192.102 1220.14 Q189.047 1224.72 183.237 1224.72 Q177.427 1224.72 174.348 1220.14 Q171.292 1215.53 171.292 1206.8 Q171.292 1198.05 174.348 1193.47 Q177.427 1188.86 183.237 1188.86 Z" fill="#000000" fill-rule="evenodd" fill-opacity="1"></path><path clip-path="url(#clip060)" d="M56.6171 1015.3 L72.9365 1015.3 L72.9365 1019.23 L50.9921 1019.23 L50.9921 1015.3 Q53.6541 1012.54 58.2375 1007.91 Q62.8439 1003.26 64.0245 1001.92 Q66.2698 999.396 67.1494 997.66 Q68.0522 995.901 68.0522 994.211 Q68.0522 991.457 66.1078 989.72 Q64.1865 987.984 61.0847 987.984 Q58.8856 987.984 56.4319 988.748 Q54.0014 989.512 51.2236 991.063 L51.2236 986.341 Q54.0477 985.207 56.5014 984.628 Q58.955 984.049 60.9921 984.049 Q66.3624 984.049 69.5568 986.734 Q72.7513 989.42 72.7513 993.91 Q72.7513 996.04 71.9411 997.961 Q71.1541 999.859 69.0476 1002.45 Q68.4689 1003.12 65.367 1006.34 Q62.2652 1009.54 56.6171 1015.3 Z" fill="#000000" fill-rule="evenodd" fill-opacity="1"></path><path clip-path="url(#clip060)" d="M96.9178 1000.6 Q100.274 1001.32 102.149 1003.59 Q104.047 1005.85 104.047 1009.19 Q104.047 1014.3 100.529 1017.1 Q97.0104 1019.91 90.529 1019.91 Q88.353 1019.91 86.0382 1019.47 Q83.7466 1019.05 81.2929 1018.19 L81.2929 1013.68 Q83.2373 1014.81 85.5521 1015.39 Q87.8669 1015.97 90.3901 1015.97 Q94.7882 1015.97 97.0798 1014.23 Q99.3946 1012.5 99.3946 1009.19 Q99.3946 1006.13 97.2419 1004.42 Q95.1123 1002.68 91.2928 1002.68 L87.2651 1002.68 L87.2651 998.841 L91.478 998.841 Q94.9271 998.841 96.7558 997.475 Q98.5845 996.086 98.5845 993.494 Q98.5845 990.832 96.6863 989.42 Q94.8113 987.984 91.2928 987.984 Q89.3715 987.984 87.1725 988.401 Q84.9734 988.818 82.3346 989.697 L82.3346 985.531 Q84.9966 984.79 87.3114 984.42 Q89.6493 984.049 91.7095 984.049 Q97.0335 984.049 100.135 986.48 Q103.237 988.887 103.237 993.008 Q103.237 995.878 101.594 997.869 Q99.9502 999.836 96.9178 1000.6 Z" fill="#000000" fill-rule="evenodd" fill-opacity="1"></path><path clip-path="url(#clip060)" d="M122.913 987.753 Q119.302 987.753 117.473 991.318 Q115.668 994.859 115.668 1001.99 Q115.668 1009.1 117.473 1012.66 Q119.302 1016.2 122.913 1016.2 Q126.547 1016.2 128.353 1012.66 Q130.182 1009.1 130.182 1001.99 Q130.182 994.859 128.353 991.318 Q126.547 987.753 122.913 987.753 M122.913 984.049 Q128.723 984.049 131.779 988.656 Q134.857 993.239 134.857 1001.99 Q134.857 1010.72 131.779 1015.32 Q128.723 1019.91 122.913 1019.91 Q117.103 1019.91 114.024 1015.32 Q110.969 1010.72 110.969 1001.99 Q110.969 993.239 114.024 988.656 Q117.103 984.049 122.913 984.049 Z" fill="#000000" fill-rule="evenodd" fill-opacity="1"></path><path clip-path="url(#clip060)" d="M153.075 987.753 Q149.464 987.753 147.635 991.318 Q145.83 994.859 145.83 1001.99 Q145.83 1009.1 147.635 1012.66 Q149.464 1016.2 153.075 1016.2 Q156.709 1016.2 158.515 1012.66 Q160.343 1009.1 160.343 1001.99 Q160.343 994.859 158.515 991.318 Q156.709 987.753 153.075 987.753 M153.075 984.049 Q158.885 984.049 161.941 988.656 Q165.019 993.239 165.019 1001.99 Q165.019 1010.72 161.941 1015.32 Q158.885 1019.91 153.075 1019.91 Q147.265 1019.91 144.186 1015.32 Q141.131 1010.72 141.131 1001.99 Q141.131 993.239 144.186 988.656 Q147.265 984.049 153.075 984.049 Z" fill="#000000" fill-rule="evenodd" fill-opacity="1"></path><path clip-path="url(#clip060)" d="M183.237 987.753 Q179.626 987.753 177.797 991.318 Q175.991 994.859 175.991 1001.99 Q175.991 1009.1 177.797 1012.66 Q179.626 1016.2 183.237 1016.2 Q186.871 1016.2 188.677 1012.66 Q190.505 1009.1 190.505 1001.99 Q190.505 994.859 188.677 991.318 Q186.871 987.753 183.237 987.753 M183.237 984.049 Q189.047 984.049 192.102 988.656 Q195.181 993.239 195.181 1001.99 Q195.181 1010.72 192.102 1015.32 Q189.047 1019.91 183.237 1019.91 Q177.427 1019.91 174.348 1015.32 Q171.292 1010.72 171.292 1001.99 Q171.292 993.239 174.348 988.656 Q177.427 984.049 183.237 984.049 Z" fill="#000000" fill-rule="evenodd" fill-opacity="1"></path><path clip-path="url(#clip060)" d="M56.6171 810.486 L72.9365 810.486 L72.9365 814.421 L50.9921 814.421 L50.9921 810.486 Q53.6541 807.731 58.2375 803.102 Q62.8439 798.449 64.0245 797.107 Q66.2698 794.583 67.1494 792.847 Q68.0522 791.088 68.0522 789.398 Q68.0522 786.644 66.1078 784.908 Q64.1865 783.171 61.0847 783.171 Q58.8856 783.171 56.4319 783.935 Q54.0014 784.699 51.2236 786.25 L51.2236 781.528 Q54.0477 780.394 56.5014 779.815 Q58.955 779.236 60.9921 779.236 Q66.3624 779.236 69.5568 781.921 Q72.7513 784.607 72.7513 789.097 Q72.7513 791.227 71.9411 793.148 Q71.1541 795.046 69.0476 797.639 Q68.4689 798.31 65.367 801.528 Q62.2652 804.722 56.6171 810.486 Z" fill="#000000" fill-rule="evenodd" fill-opacity="1"></path><path clip-path="url(#clip060)" d="M95.5984 783.935 L83.7929 802.384 L95.5984 802.384 L95.5984 783.935 M94.3715 779.861 L100.251 779.861 L100.251 802.384 L105.182 802.384 L105.182 806.273 L100.251 806.273 L100.251 814.421 L95.5984 814.421 L95.5984 806.273 L79.9966 806.273 L79.9966 801.759 L94.3715 779.861 Z" fill="#000000" fill-rule="evenodd" fill-opacity="1"></path><path clip-path="url(#clip060)" d="M122.913 782.94 Q119.302 782.94 117.473 786.505 Q115.668 790.046 115.668 797.176 Q115.668 804.282 117.473 807.847 Q119.302 811.389 122.913 811.389 Q126.547 811.389 128.353 807.847 Q130.182 804.282 130.182 797.176 Q130.182 790.046 128.353 786.505 Q126.547 782.94 122.913 782.94 M122.913 779.236 Q128.723 779.236 131.779 783.843 Q134.857 788.426 134.857 797.176 Q134.857 805.903 131.779 810.509 Q128.723 815.093 122.913 815.093 Q117.103 815.093 114.024 810.509 Q110.969 805.903 110.969 797.176 Q110.969 788.426 114.024 783.843 Q117.103 779.236 122.913 779.236 Z" fill="#000000" fill-rule="evenodd" fill-opacity="1"></path><path clip-path="url(#clip060)" d="M153.075 782.94 Q149.464 782.94 147.635 786.505 Q145.83 790.046 145.83 797.176 Q145.83 804.282 147.635 807.847 Q149.464 811.389 153.075 811.389 Q156.709 811.389 158.515 807.847 Q160.343 804.282 160.343 797.176 Q160.343 790.046 158.515 786.505 Q156.709 782.94 153.075 782.94 M153.075 779.236 Q158.885 779.236 161.941 783.843 Q165.019 788.426 165.019 797.176 Q165.019 805.903 161.941 810.509 Q158.885 815.093 153.075 815.093 Q147.265 815.093 144.186 810.509 Q141.131 805.903 141.131 797.176 Q141.131 788.426 144.186 783.843 Q147.265 779.236 153.075 779.236 Z" fill="#000000" fill-rule="evenodd" fill-opacity="1"></path><path clip-path="url(#clip060)" d="M183.237 782.94 Q179.626 782.94 177.797 786.505 Q175.991 790.046 175.991 797.176 Q175.991 804.282 177.797 807.847 Q179.626 811.389 183.237 811.389 Q186.871 811.389 188.677 807.847 Q190.505 804.282 190.505 797.176 Q190.505 790.046 188.677 786.505 Q186.871 782.94 183.237 782.94 M183.237 779.236 Q189.047 779.236 192.102 783.843 Q195.181 788.426 195.181 797.176 Q195.181 805.903 192.102 810.509 Q189.047 815.093 183.237 815.093 Q177.427 815.093 174.348 810.509 Q171.292 805.903 171.292 797.176 Q171.292 788.426 174.348 783.843 Q177.427 779.236 183.237 779.236 Z" fill="#000000" fill-rule="evenodd" fill-opacity="1"></path><path clip-path="url(#clip060)" d="M56.6171 605.673 L72.9365 605.673 L72.9365 609.608 L50.9921 609.608 L50.9921 605.673 Q53.6541 602.918 58.2375 598.289 Q62.8439 593.636 64.0245 592.294 Q66.2698 589.77 67.1494 588.034 Q68.0522 586.275 68.0522 584.585 Q68.0522 581.831 66.1078 580.095 Q64.1865 578.358 61.0847 578.358 Q58.8856 578.358 56.4319 579.122 Q54.0014 579.886 51.2236 581.437 L51.2236 576.715 Q54.0477 575.581 56.5014 575.002 Q58.955 574.423 60.9921 574.423 Q66.3624 574.423 69.5568 577.108 Q72.7513 579.794 72.7513 584.284 Q72.7513 586.414 71.9411 588.335 Q71.1541 590.233 69.0476 592.826 Q68.4689 593.497 65.367 596.715 Q62.2652 599.909 56.6171 605.673 Z" fill="#000000" fill-rule="evenodd" fill-opacity="1"></path><path clip-path="url(#clip060)" d="M82.7975 575.048 L101.154 575.048 L101.154 578.983 L87.0799 578.983 L87.0799 587.456 Q88.0984 587.108 89.1169 586.946 Q90.1354 586.761 91.1539 586.761 Q96.941 586.761 100.321 589.932 Q103.7 593.104 103.7 598.52 Q103.7 604.099 100.228 607.201 Q96.7558 610.28 90.4364 610.28 Q88.2604 610.28 85.9919 609.909 Q83.7466 609.539 81.3392 608.798 L81.3392 604.099 Q83.4225 605.233 85.6447 605.789 Q87.8669 606.344 90.3438 606.344 Q94.3484 606.344 96.6863 604.238 Q99.0243 602.131 99.0243 598.52 Q99.0243 594.909 96.6863 592.803 Q94.3484 590.696 90.3438 590.696 Q88.4688 590.696 86.5938 591.113 Q84.7419 591.53 82.7975 592.409 L82.7975 575.048 Z" fill="#000000" fill-rule="evenodd" fill-opacity="1"></path><path clip-path="url(#clip060)" d="M122.913 578.127 Q119.302 578.127 117.473 581.692 Q115.668 585.233 115.668 592.363 Q115.668 599.469 117.473 603.034 Q119.302 606.576 122.913 606.576 Q126.547 606.576 128.353 603.034 Q130.182 599.469 130.182 592.363 Q130.182 585.233 128.353 581.692 Q126.547 578.127 122.913 578.127 M122.913 574.423 Q128.723 574.423 131.779 579.03 Q134.857 583.613 134.857 592.363 Q134.857 601.09 131.779 605.696 Q128.723 610.28 122.913 610.28 Q117.103 610.28 114.024 605.696 Q110.969 601.09 110.969 592.363 Q110.969 583.613 114.024 579.03 Q117.103 574.423 122.913 574.423 Z" fill="#000000" fill-rule="evenodd" fill-opacity="1"></path><path clip-path="url(#clip060)" d="M153.075 578.127 Q149.464 578.127 147.635 581.692 Q145.83 585.233 145.83 592.363 Q145.83 599.469 147.635 603.034 Q149.464 606.576 153.075 606.576 Q156.709 606.576 158.515 603.034 Q160.343 599.469 160.343 592.363 Q160.343 585.233 158.515 581.692 Q156.709 578.127 153.075 578.127 M153.075 574.423 Q158.885 574.423 161.941 579.03 Q165.019 583.613 165.019 592.363 Q165.019 601.09 161.941 605.696 Q158.885 610.28 153.075 610.28 Q147.265 610.28 144.186 605.696 Q141.131 601.09 141.131 592.363 Q141.131 583.613 144.186 579.03 Q147.265 574.423 153.075 574.423 Z" fill="#000000" fill-rule="evenodd" fill-opacity="1"></path><path clip-path="url(#clip060)" d="M183.237 578.127 Q179.626 578.127 177.797 581.692 Q175.991 585.233 175.991 592.363 Q175.991 599.469 177.797 603.034 Q179.626 606.576 183.237 606.576 Q186.871 606.576 188.677 603.034 Q190.505 599.469 190.505 592.363 Q190.505 585.233 188.677 581.692 Q186.871 578.127 183.237 578.127 M183.237 574.423 Q189.047 574.423 192.102 579.03 Q195.181 583.613 195.181 592.363 Q195.181 601.09 192.102 605.696 Q189.047 610.28 183.237 610.28 Q177.427 610.28 174.348 605.696 Q171.292 601.09 171.292 592.363 Q171.292 583.613 174.348 579.03 Q177.427 574.423 183.237 574.423 Z" fill="#000000" fill-rule="evenodd" fill-opacity="1"></path><path clip-path="url(#clip060)" d="M56.6171 400.86 L72.9365 400.86 L72.9365 404.795 L50.9921 404.795 L50.9921 400.86 Q53.6541 398.105 58.2375 393.476 Q62.8439 388.823 64.0245 387.481 Q66.2698 384.957 67.1494 383.221 Q68.0522 381.462 68.0522 379.772 Q68.0522 377.018 66.1078 375.282 Q64.1865 373.545 61.0847 373.545 Q58.8856 373.545 56.4319 374.309 Q54.0014 375.073 51.2236 376.624 L51.2236 371.902 Q54.0477 370.768 56.5014 370.189 Q58.955 369.61 60.9921 369.61 Q66.3624 369.61 69.5568 372.295 Q72.7513 374.981 72.7513 379.471 Q72.7513 381.601 71.9411 383.522 Q71.1541 385.42 69.0476 388.013 Q68.4689 388.684 65.367 391.902 Q62.2652 395.096 56.6171 400.86 Z" fill="#000000" fill-rule="evenodd" fill-opacity="1"></path><path clip-path="url(#clip060)" d="M93.3299 385.652 Q90.1817 385.652 88.3299 387.805 Q86.5012 389.957 86.5012 393.707 Q86.5012 397.434 88.3299 399.61 Q90.1817 401.763 93.3299 401.763 Q96.478 401.763 98.3067 399.61 Q100.159 397.434 100.159 393.707 Q100.159 389.957 98.3067 387.805 Q96.478 385.652 93.3299 385.652 M102.612 370.999 L102.612 375.258 Q100.853 374.425 99.0474 373.985 Q97.265 373.545 95.5058 373.545 Q90.8762 373.545 88.4225 376.67 Q85.9919 379.795 85.6447 386.115 Q87.0105 384.101 89.0706 383.036 Q91.1308 381.948 93.6076 381.948 Q98.8159 381.948 101.825 385.119 Q104.858 388.268 104.858 393.707 Q104.858 399.031 101.709 402.249 Q98.5613 405.467 93.3299 405.467 Q87.3345 405.467 84.1632 400.883 Q80.992 396.277 80.992 387.55 Q80.992 379.356 84.8808 374.495 Q88.7697 369.61 95.3206 369.61 Q97.0798 369.61 98.8622 369.957 Q100.668 370.305 102.612 370.999 Z" fill="#000000" fill-rule="evenodd" fill-opacity="1"></path><path clip-path="url(#clip060)" d="M122.913 373.314 Q119.302 373.314 117.473 376.879 Q115.668 380.42 115.668 387.55 Q115.668 394.656 117.473 398.221 Q119.302 401.763 122.913 401.763 Q126.547 401.763 128.353 398.221 Q130.182 394.656 130.182 387.55 Q130.182 380.42 128.353 376.879 Q126.547 373.314 122.913 373.314 M122.913 369.61 Q128.723 369.61 131.779 374.217 Q134.857 378.8 134.857 387.55 Q134.857 396.277 131.779 400.883 Q128.723 405.467 122.913 405.467 Q117.103 405.467 114.024 400.883 Q110.969 396.277 110.969 387.55 Q110.969 378.8 114.024 374.217 Q117.103 369.61 122.913 369.61 Z" fill="#000000" fill-rule="evenodd" fill-opacity="1"></path><path clip-path="url(#clip060)" d="M153.075 373.314 Q149.464 373.314 147.635 376.879 Q145.83 380.42 145.83 387.55 Q145.83 394.656 147.635 398.221 Q149.464 401.763 153.075 401.763 Q156.709 401.763 158.515 398.221 Q160.343 394.656 160.343 387.55 Q160.343 380.42 158.515 376.879 Q156.709 373.314 153.075 373.314 M153.075 369.61 Q158.885 369.61 161.941 374.217 Q165.019 378.8 165.019 387.55 Q165.019 396.277 161.941 400.883 Q158.885 405.467 153.075 405.467 Q147.265 405.467 144.186 400.883 Q141.131 396.277 141.131 387.55 Q141.131 378.8 144.186 374.217 Q147.265 369.61 153.075 369.61 Z" fill="#000000" fill-rule="evenodd" fill-opacity="1"></path><path clip-path="url(#clip060)" d="M183.237 373.314 Q179.626 373.314 177.797 376.879 Q175.991 380.42 175.991 387.55 Q175.991 394.656 177.797 398.221 Q179.626 401.763 183.237 401.763 Q186.871 401.763 188.677 398.221 Q190.505 394.656 190.505 387.55 Q190.505 380.42 188.677 376.879 Q186.871 373.314 183.237 373.314 M183.237 369.61 Q189.047 369.61 192.102 374.217 Q195.181 378.8 195.181 387.55 Q195.181 396.277 192.102 400.883 Q189.047 405.467 183.237 405.467 Q177.427 405.467 174.348 400.883 Q171.292 396.277 171.292 387.55 Q171.292 378.8 174.348 374.217 Q177.427 369.61 183.237 369.61 Z" fill="#000000" fill-rule="evenodd" fill-opacity="1"></path><path clip-path="url(#clip060)" d="M56.6171 196.047 L72.9365 196.047 L72.9365 199.982 L50.9921 199.982 L50.9921 196.047 Q53.6541 193.293 58.2375 188.663 Q62.8439 184.01 64.0245 182.668 Q66.2698 180.144 67.1494 178.408 Q68.0522 176.649 68.0522 174.959 Q68.0522 172.205 66.1078 170.469 Q64.1865 168.732 61.0847 168.732 Q58.8856 168.732 56.4319 169.496 Q54.0014 170.26 51.2236 171.811 L51.2236 167.089 Q54.0477 165.955 56.5014 165.376 Q58.955 164.797 60.9921 164.797 Q66.3624 164.797 69.5568 167.482 Q72.7513 170.168 72.7513 174.658 Q72.7513 176.788 71.9411 178.709 Q71.1541 180.607 69.0476 183.2 Q68.4689 183.871 65.367 187.089 Q62.2652 190.283 56.6171 196.047 Z" fill="#000000" fill-rule="evenodd" fill-opacity="1"></path><path clip-path="url(#clip060)" d="M81.5707 165.422 L103.793 165.422 L103.793 167.413 L91.2465 199.982 L86.3623 199.982 L98.1678 169.357 L81.5707 169.357 L81.5707 165.422 Z" fill="#000000" fill-rule="evenodd" fill-opacity="1"></path><path clip-path="url(#clip060)" d="M122.913 168.501 Q119.302 168.501 117.473 172.066 Q115.668 175.607 115.668 182.737 Q115.668 189.843 117.473 193.408 Q119.302 196.95 122.913 196.95 Q126.547 196.95 128.353 193.408 Q130.182 189.843 130.182 182.737 Q130.182 175.607 128.353 172.066 Q126.547 168.501 122.913 168.501 M122.913 164.797 Q128.723 164.797 131.779 169.404 Q134.857 173.987 134.857 182.737 Q134.857 191.464 131.779 196.07 Q128.723 200.654 122.913 200.654 Q117.103 200.654 114.024 196.07 Q110.969 191.464 110.969 182.737 Q110.969 173.987 114.024 169.404 Q117.103 164.797 122.913 164.797 Z" fill="#000000" fill-rule="evenodd" fill-opacity="1"></path><path clip-path="url(#clip060)" d="M153.075 168.501 Q149.464 168.501 147.635 172.066 Q145.83 175.607 145.83 182.737 Q145.83 189.843 147.635 193.408 Q149.464 196.95 153.075 196.95 Q156.709 196.95 158.515 193.408 Q160.343 189.843 160.343 182.737 Q160.343 175.607 158.515 172.066 Q156.709 168.501 153.075 168.501 M153.075 164.797 Q158.885 164.797 161.941 169.404 Q165.019 173.987 165.019 182.737 Q165.019 191.464 161.941 196.07 Q158.885 200.654 153.075 200.654 Q147.265 200.654 144.186 196.07 Q141.131 191.464 141.131 182.737 Q141.131 173.987 144.186 169.404 Q147.265 164.797 153.075 164.797 Z" fill="#000000" fill-rule="evenodd" fill-opacity="1"></path><path clip-path="url(#clip060)" d="M183.237 168.501 Q179.626 168.501 177.797 172.066 Q175.991 175.607 175.991 182.737 Q175.991 189.843 177.797 193.408 Q179.626 196.95 183.237 196.95 Q186.871 196.95 188.677 193.408 Q190.505 189.843 190.505 182.737 Q190.505 175.607 188.677 172.066 Q186.871 168.501 183.237 168.501 M183.237 164.797 Q189.047 164.797 192.102 169.404 Q195.181 173.987 195.181 182.737 Q195.181 191.464 192.102 196.07 Q189.047 200.654 183.237 200.654 Q177.427 200.654 174.348 196.07 Q171.292 191.464 171.292 182.737 Q171.292 173.987 174.348 169.404 Q177.427 164.797 183.237 164.797 Z" fill="#000000" fill-rule="evenodd" fill-opacity="1"></path><circle clip-path="url(#clip062)" cx="547.815" cy="1445.72" r="14.4" fill="#009af9" fill-rule="evenodd" fill-opacity="1" stroke="#000000" stroke-opacity="1" stroke-width="3.2"></circle>
<circle clip-path="url(#clip062)" cx="554.642" cy="1432.06" r="14.4" fill="#009af9" fill-rule="evenodd" fill-opacity="1" stroke="#000000" stroke-opacity="1" stroke-width="3.2"></circle>
<circle clip-path="url(#clip062)" cx="1384.13" cy="1350.14" r="14.4" fill="#009af9" fill-rule="evenodd" fill-opacity="1" stroke="#000000" stroke-opacity="1" stroke-width="3.2"></circle>
<circle clip-path="url(#clip062)" cx="1152.01" cy="1288.69" r="14.4" fill="#009af9" fill-rule="evenodd" fill-opacity="1" stroke="#000000" stroke-opacity="1" stroke-width="3.2"></circle>
<circle clip-path="url(#clip062)" cx="984.749" cy="1288.69" r="14.4" fill="#009af9" fill-rule="evenodd" fill-opacity="1" stroke="#000000" stroke-opacity="1" stroke-width="3.2"></circle>
<circle clip-path="url(#clip062)" cx="670.702" cy="1288.69" r="14.4" fill="#009af9" fill-rule="evenodd" fill-opacity="1" stroke="#000000" stroke-opacity="1" stroke-width="3.2"></circle>
<circle clip-path="url(#clip062)" cx="1360.24" cy="1169.22" r="14.4" fill="#009af9" fill-rule="evenodd" fill-opacity="1" stroke="#000000" stroke-opacity="1" stroke-width="3.2"></circle>
<circle clip-path="url(#clip062)" cx="1121.29" cy="1087.29" r="14.4" fill="#009af9" fill-rule="evenodd" fill-opacity="1" stroke="#000000" stroke-opacity="1" stroke-width="3.2"></circle>
<circle clip-path="url(#clip062)" cx="1445.58" cy="1066.81" r="14.4" fill="#009af9" fill-rule="evenodd" fill-opacity="1" stroke="#000000" stroke-opacity="1" stroke-width="3.2"></circle>
<circle clip-path="url(#clip062)" cx="800.417" cy="875.653" r="14.4" fill="#009af9" fill-rule="evenodd" fill-opacity="1" stroke="#000000" stroke-opacity="1" stroke-width="3.2"></circle>
<circle clip-path="url(#clip062)" cx="786.763" cy="858.585" r="14.4" fill="#009af9" fill-rule="evenodd" fill-opacity="1" stroke="#000000" stroke-opacity="1" stroke-width="3.2"></circle>
<circle clip-path="url(#clip062)" cx="1073.5" cy="821.036" r="14.4" fill="#009af9" fill-rule="evenodd" fill-opacity="1" stroke="#000000" stroke-opacity="1" stroke-width="3.2"></circle>
<circle clip-path="url(#clip062)" cx="1336.34" cy="763.006" r="14.4" fill="#009af9" fill-rule="evenodd" fill-opacity="1" stroke="#000000" stroke-opacity="1" stroke-width="3.2"></circle>
<circle clip-path="url(#clip062)" cx="1517.43" cy="561.777" r="14.4" fill="#009af9" fill-rule="evenodd" fill-opacity="1" stroke="#000000" stroke-opacity="1" stroke-width="3.2"></circle>
<circle clip-path="url(#clip062)" cx="1080.33" cy="360.207" r="14.4" fill="#009af9" fill-rule="evenodd" fill-opacity="1" stroke="#000000" stroke-opacity="1" stroke-width="3.2"></circle>
<circle clip-path="url(#clip062)" cx="1889.34" cy="356.793" r="14.4" fill="#009af9" fill-rule="evenodd" fill-opacity="1" stroke="#000000" stroke-opacity="1" stroke-width="3.2"></circle>
<circle clip-path="url(#clip062)" cx="1435.34" cy="329.485" r="14.4" fill="#009af9" fill-rule="evenodd" fill-opacity="1" stroke="#000000" stroke-opacity="1" stroke-width="3.2"></circle>
<circle clip-path="url(#clip062)" cx="1298.8" cy="298.763" r="14.4" fill="#009af9" fill-rule="evenodd" fill-opacity="1" stroke="#000000" stroke-opacity="1" stroke-width="3.2"></circle>
<circle clip-path="url(#clip062)" cx="1213.46" cy="274.868" r="14.4" fill="#009af9" fill-rule="evenodd" fill-opacity="1" stroke="#000000" stroke-opacity="1" stroke-width="3.2"></circle>
<circle clip-path="url(#clip062)" cx="1657.22" cy="237.319" r="14.4" fill="#009af9" fill-rule="evenodd" fill-opacity="1" stroke="#000000" stroke-opacity="1" stroke-width="3.2"></circle>
<circle clip-path="url(#clip062)" cx="1376.91" cy="177.354" r="14.4" fill="#009af9" fill-rule="evenodd" fill-opacity="1" stroke="#000000" stroke-opacity="1" stroke-width="3.2"></circle>
<circle clip-path="url(#clip062)" cx="1302.38" cy="163.017" r="14.4" fill="#009af9" fill-rule="evenodd" fill-opacity="1" stroke="#000000" stroke-opacity="1" stroke-width="3.2"></circle>
<circle clip-path="url(#clip062)" cx="1345.9" cy="151.241" r="14.4" fill="#009af9" fill-rule="evenodd" fill-opacity="1" stroke="#000000" stroke-opacity="1" stroke-width="3.2"></circle>
<circle clip-path="url(#clip062)" cx="2036.12" cy="148.567" r="14.4" fill="#009af9" fill-rule="evenodd" fill-opacity="1" stroke="#000000" stroke-opacity="1" stroke-width="3.2"></circle>
<circle clip-path="url(#clip062)" cx="1909.82" cy="134.913" r="14.4" fill="#009af9" fill-rule="evenodd" fill-opacity="1" stroke="#000000" stroke-opacity="1" stroke-width="3.2"></circle>
<circle clip-path="url(#clip062)" cx="1636.74" cy="134.913" r="14.4" fill="#009af9" fill-rule="evenodd" fill-opacity="1" stroke="#000000" stroke-opacity="1" stroke-width="3.2"></circle>
<circle clip-path="url(#clip062)" cx="1923.48" cy="128.085" r="14.4" fill="#009af9" fill-rule="evenodd" fill-opacity="1" stroke="#000000" stroke-opacity="1" stroke-width="3.2"></circle>
<circle clip-path="url(#clip062)" cx="1510.44" cy="93.95" r="14.4" fill="#009af9" fill-rule="evenodd" fill-opacity="1" stroke="#000000" stroke-opacity="1" stroke-width="3.2"></circle>
<circle clip-path="url(#clip062)" cx="1389.14" cy="87.9763" r="14.4" fill="#009af9" fill-rule="evenodd" fill-opacity="1" stroke="#000000" stroke-opacity="1" stroke-width="3.2"></circle>
<polyline clip-path="url(#clip062)" style="stroke:#e26f46; stroke-linecap:round; stroke-linejoin:round; stroke-width:4; stroke-opacity:1; fill:none" points="2036.12,148.567 1909.82,134.913 1923.48,128.085 1657.22,237.319 1636.74,134.913 1510.44,93.95 1389.14,87.9763 1302.38,163.017 1345.9,151.241 1376.91,177.354 1435.34,329.485 1298.8,298.763 1213.46,274.868 1080.33,360.207 1073.5,821.036 800.417,875.653 786.763,858.585 670.702,1288.69 554.642,1432.06 547.815,1445.72 984.749,1288.69 1121.29,1087.29 1152.01,1288.69 1384.13,1350.14 1360.24,1169.22 1445.58,1066.81 1336.34,763.006 1517.43,561.777 1889.34,356.793 2036.12,148.567 "></polyline>
</svg>